<?xml version="1.0" encoding="UTF-8" standalone="no"?>
<svg
   xmlns:dc="http://purl.org/dc/elements/1.1/"
   xmlns:cc="http://creativecommons.org/ns#"
   xmlns:rdf="http://www.w3.org/1999/02/22-rdf-syntax-ns#"
   xmlns:svg="http://www.w3.org/2000/svg"
   xmlns="http://www.w3.org/2000/svg"
   xmlns:sodipodi="http://sodipodi.sourceforge.net/DTD/sodipodi-0.dtd"
   xmlns:inkscape="http://www.inkscape.org/namespaces/inkscape"
   viewBox="0 0 48 48"
   version="1.1"
   id="svg33"
   sodipodi:docname="apart.svg"
   inkscape:version="0.92.2 2405546, 2018-03-11">
  <metadata
     id="metadata37">
    <rdf:RDF>
      <cc:Work
         rdf:about="">
        <dc:format>image/svg+xml</dc:format>
        <dc:type
           rdf:resource="http://purl.org/dc/dcmitype/StillImage" />
        <dc:title />
      </cc:Work>
    </rdf:RDF>
  </metadata>
  <sodipodi:namedview
     pagecolor="#ffffff"
     bordercolor="#666666"
     borderopacity="1"
     objecttolerance="10"
     gridtolerance="10"
     guidetolerance="10"
     inkscape:pageopacity="0"
     inkscape:pageshadow="2"
     inkscape:window-width="1252"
     inkscape:window-height="1385"
     id="namedview35"
     showgrid="false"
     showguides="false"
     inkscape:zoom="14.909867"
     inkscape:cx="15.627119"
     inkscape:cy="9.8964051"
     inkscape:window-x="57"
     inkscape:window-y="27"
     inkscape:window-maximized="0"
     inkscape:current-layer="g4604">
    <inkscape:grid
       type="xygrid"
       id="grid3714" />
  </sodipodi:namedview>
  <defs
     id="defs7">
    <linearGradient
       id="linearGradient3764"
       x1="1"
       x2="47"
       gradientUnits="userSpaceOnUse"
       gradientTransform="matrix(0,-1,1,0,-1.5e-6,47.999998)">
      <stop
         style="stop-color:#d2d2d2;stop-opacity:1"
         id="stop2" />
      <stop
         offset="1"
         style="stop-color:#dcdcdc;stop-opacity:1"
         id="stop4" />
    </linearGradient>
  </defs>
  <g
     id="g15">
    <path
       d="m 36.31 5 c 5.859 4.062 9.688 10.831 9.688 18.5 c 0 12.426 -10.07 22.5 -22.5 22.5 c -7.669 0 -14.438 -3.828 -18.5 -9.688 c 1.037 1.822 2.306 3.499 3.781 4.969 c 4.085 3.712 9.514 5.969 15.469 5.969 c 12.703 0 23 -10.298 23 -23 c 0 -5.954 -2.256 -11.384 -5.969 -15.469 c -1.469 -1.475 -3.147 -2.744 -4.969 -3.781 z m 4.969 3.781 c 3.854 4.113 6.219 9.637 6.219 15.719 c 0 12.703 -10.297 23 -23 23 c -6.081 0 -11.606 -2.364 -15.719 -6.219 c 4.16 4.144 9.883 6.719 16.219 6.719 c 12.703 0 23 -10.298 23 -23 c 0 -6.335 -2.575 -12.06 -6.719 -16.219 z"
       style="opacity:0.05"
       id="path9" />
    <path
       d="m 41.28 8.781 c 3.712 4.085 5.969 9.514 5.969 15.469 c 0 12.703 -10.297 23 -23 23 c -5.954 0 -11.384 -2.256 -15.469 -5.969 c 4.113 3.854 9.637 6.219 15.719 6.219 c 12.703 0 23 -10.298 23 -23 c 0 -6.081 -2.364 -11.606 -6.219 -15.719 z"
       style="opacity:0.1"
       id="path11" />
    <path
       d="m 31.25 2.375 c 8.615 3.154 14.75 11.417 14.75 21.13 c 0 12.426 -10.07 22.5 -22.5 22.5 c -9.708 0 -17.971 -6.135 -21.12 -14.75 a 23 23 0 0 0 44.875 -7 a 23 23 0 0 0 -16 -21.875 z"
       style="opacity:0.2"
       id="path13" />
  </g>
  <g
     id="g19">
    <path
       d="m 24 1 c 12.703 0 23 10.297 23 23 c 0 12.703 -10.297 23 -23 23 -12.703 0 -23 -10.297 -23 -23 0 -12.703 10.297 -23 23 -23 z"
       style="fill:url(#linearGradient3764);fill-opacity:1"
       id="path17" />
  </g>
  <g
     id="g23">
    <path
       d="m 40.03 7.531 c 3.712 4.084 5.969 9.514 5.969 15.469 0 12.703 -10.297 23 -23 23 c -5.954 0 -11.384 -2.256 -15.469 -5.969 4.178 4.291 10.01 6.969 16.469 6.969 c 12.703 0 23 -10.298 23 -23 0 -6.462 -2.677 -12.291 -6.969 -16.469 z"
       style="opacity:0.1"
       id="path21" />
  </g>
  <path
     d="M 25 10 A 15 15 0 0 0 10 25 15 15 0 0 0 25 40 15 15 0 0 0 40 25 15 15 0 0 0 25 10 m 0 9.5 A 5.5 5.5 0 0 1 30.5 25 5.5 5.5 0 0 1 25 30.5 5.5 5.5 0 0 1 19.5 25 5.5 5.5 0 0 1 25 19.5"
     style="fill:#000;opacity:0.1;fill-opacity:1;stroke:none"
     id="path25" />
  <path
     d="M 19.383,26.986 11.418,32.14 A 15,15 0 0 0 24,38.999 a 15,15 0 0 0 7.06,-1.77 l -4.471,-8.381 a 5.5,5.5 0 0 1 -2.586,0.65 5.5,5.5 0 0 1 -4.617,-2.514"
     style="fill:#a8cf36;opacity:1;fill-opacity:1;stroke:none"
     id="path27" />
  <path
     d="M 24 9 A 15 15 0 0 0 9 24 15 15 0 0 0 11.621 32.471 L 19.465 27.1 A 5.5 5.5 0 0 1 18.5 24 5.5 5.5 0 0 1 24 18.5 5.5 5.5 0 0 1 29.5 24 L 39 24 A 15 15 0 0 0 24 9"
     style="fill:#e38c53;opacity:1;fill-opacity:1;stroke:none"
     id="path29" />
  <path
     d="M 29.406 23 A 5.5 5.5 0 0 1 29.5 24 5.5 5.5 0 0 1 24 29.5 L 24 39 A 15 15 0 0 0 39 24 15 15 0 0 0 38.951 23 l -9.545 0 z"
     style="fill:#59a3c8;opacity:1;fill-opacity:1;stroke:none"
     id="path31" />
  <g
     style="display:inline;opacity:0.261"
     inkscape:label="A shadow"
     id="g4604"
     inkscape:groupmode="layer">
    <g
       aria-label="A"
       style="font-style:normal;font-weight:normal;font-size:40px;line-height:1.25;font-family:sans-serif;letter-spacing:0px;word-spacing:0px;opacity:1;fill:#000000;fill-opacity:1;stroke:none"
       id="text4602">
      <path
         d="M 24.349841,12.35368 18.998279,26.865398 H 29.720935 Z M 22.123279,8.4669609 h 4.472656 L 37.709216,37.627117 h -4.101562 l -2.65625,-7.480469 H 17.806872 l -2.65625,7.480469 h -4.160156 z"
         style=""
         id="path58" />
    </g>
  </g>
  <g
     inkscape:groupmode="layer"
     id="layer1"
     inkscape:label="A"
     style="display:inline;opacity:0.8">
    <g
       aria-label="A"
       style="font-style:normal;font-weight:normal;font-size:40px;line-height:1.25;font-family:sans-serif;letter-spacing:0px;word-spacing:0px;opacity:1;fill:#000037;fill-opacity:1;stroke:none"
       id="text3718">
      <path
         d="M 24.146451,12.150291 18.794888,26.66201 H 29.517545 Z M 21.919888,8.2635727 h 4.472657 L 37.505826,37.423729 H 33.404263 L 30.748013,29.94326 H 17.603482 l -2.65625,7.480469 h -4.160156 z"
         style=""
         id="path36" />
    </g>
  </g>
</svg>
